P1
# CREATOR: GIMP PNM Filter Version 1.1
156 11
1000101010000000000000000000000000000000000000000000000000000000000000
0000000000000000000000000000000000000000000000000000000000000000000000
0000000000000000100010101000000000000000000000000000000000000000000000
0000000000000000000000000000000000000000000000000000000000000000000000
0000000000000000000000000000000010001000100000000000000000000000000000
0000000000000000000000000000000000000000000000000000000000000000000000
0000000000000000000000000000000000000000000000001000100010000000000000
0000000000000011110000000000000000000000000000000000000000000000000001
1111111100000000000000000000000000000000000000000000000000000000101000
0010000011111111110000000011110001110000000000000000000111100000000000
0000000000000110000000001110000000000000000000111111110000000000001111
1100000000101000001000011000000000110000110000000001100000000000000001
1100011100000000000000000001110000000000001110000000000000111100000000
1100000011110000000000000010100000100010000000000001111100000000000001
0000000000011110000000011110000000000111111000000000000000000110000000
0111100000000000001100010000000000000000001010000010010000000000000000
0000000000000000100000000110000000000000000100000001100000000000000000
0000000001000001100000000000000000001010000000000000000000101000001001
0000000000000000000000000000000001111111100000000000000000001111111000
0000000000000000000000000010111000000000000000000000111000000000000000
0000101000101000000000000000000000000000000000000010000000000000000000
0000000000000000000000000000000000000000001110000000000000000000000000
0000000000000000000010100010100000000000000000000000000000000000000000
0000000000000000000000000000000000000000000000000000000000000000000000
000000000000000000000000000000000000