P1
# CREATOR: GIMP PNM Filter Version 1.1
156 11
0000000000000000000000000000000000000000000000000000011111000000000000
0000000000000000000000000000000111110000000000000000000000000000000000
0000000000000000000000000000000000000000000000000000000000000000000011
0001100000000000000000000000000000000000000000110001100000000000000000
0000000000000000000000000000000000000000000000000000000000000000000000
0000000000000110010001000000000000000000000000000000000000000110010001
0000000000000000000000000000000000000000000000000000111111100000011111
1100000011111110000000000000100000001000000000000000000000000000000000
0000001000000010000000000001111111000000111111100000011111110000000100
0100010000100010001000010001000100000000000010000001000000000111000000
1110000001110000000000100000010000000000001000100010000100010001000010
0010001000000100110011000010011001100001001100110000000000001000001000
0000000111000000111000000111000000000010000010000000000000100110011000
0100110011000010011001100000010001000100001000100010000100010001000000
0000001000000100000000011100000011100000011100000000001000000100000000
0000100010001000010001000100001000100010000001111111110000111111111000
0111111111000000000000110000001000000000000000000000000000000000000000
1100000010000000000011111111100001111111110000111111111000000111111111
0000111111111000011111111100000000000001000000010000000000000000000000
0000000000000000010000000100000000001111111110000111111111000011111111
1000000111111111000011111111100001111111110000000000000010000010000000
0000000000000000000000000000000000100000100000000000111111111000011111
1111000011111111100000010001000100001000100010000100010001000000000000
0001111100000000000000000000000000000000000000000001111100000000000010
001000100001000100010000100010001000