P1
# CREATOR: GIMP PNM Filter Version 1.1
156 11
0000001111100000000000111111111111000000001111111111110000000011111111
1111000000001111111111110000000011111111111100000000111111111111000000
0000011111000000000001000001000000000010111111110100000000101111111101
0000000010111111110100000000101111111101000000001011111111010000000010
1111111101000000000010000010000000001001010010000000001111000011110000
0000111100001111000000001111000011110000000011110000111100000000111100
0011110000000011110000111100000000010010100100000000100000001000000000
1110111101110000000011101111011100000000111011110111000000001110111101
1100000000111011110111000000001110111101110000000001000000010000000001
1000110000000000111011110111000000001110111101110000000011101111011100
0000001110111101110000000011101111011100000000111011110111000000000011
0001100000001100010100011000000011111110011100000000111111100111000000
0011111110011100000000111111100111000000001111111001110000000011111110
0111000000011000101000110001001101010110010000001111110111110000000011
1111011111000000001111110111110000000011111101111100000000111111011111
0000000011111101111100000010011010101100100101001101100101000000111111
0111110000000011111101111100000000111111011111000000001111110111110000
0000111111011111000000001111110111110000001010011011001010001011010101
1010000000111111111111000000001111111111110000000011111111111100000000
1111111111110000000011111111111100000000111111111111000000010110101011
0100000110110110110000000010111101110100000000101111011101000000001011
1101110100000000101111011101000000001011110111010000000010111101110100
0000001101101101100000000111111100000000001111111111110000000011111111
1111000000001111111111110000000011111111111100000000111111111111000000
001111111111110000000000111111100000