P1
# CREATOR: GIMP PNM Filter Version 1.1
156 11
0000000010000000000000010000000000000100000000000000000100000000000000
0010000000000000000100000000000000000000000000000000001000000000000000
0010000000000000000000001000000000000001000000000000010000000000000000
0100000000000000001000000000000000010000000000000001000000000000000000
1000000000000000001000000000000000000000100000000000000100000000000001
0000000000000000010000000000000000100000000000000001000000000000000100
0000000000000000100000000000000000100000000000000000000111000000000000
1110000000000011100000000000000011100000000000000111000000000000001110
0000000000000100000000000000000111000000000000000111000000000000000011
1111111000000111111111000001111111110000000001111111110000000011111111
1000000001111111110000000000111000000000000011111111100000000011111111
1000000000000001111111000000001111111000000011111110000000000011111110
0000000001111111000000000011111110000000011111111100000000000111111100
0000000001111111000000000000000011111000000000011111000000000111110000
0000000001111100000000000011111000000000000111110000000000111111100000
0000000011111000000000000011111000000000000000001111100000000001111100
0000000111110000000000000111110000000000001111100000000000011111000000
0000011111000000000000001111100000000000001111100000000000000000100110
0000000001001100000000010011000000000000010011000000000000100110000000
0000010011000000000001111100000000000000100110000000000000100110000000
0000000001000001000000001000001000000010000010000000000010000010000000
0001000001000000000010000010000000000100110000000000000100000100000000
0001000001000000000000000000000000000000000000000000000000000000000000
0000000000000000000000000000000000000000000000000000100000100000000000
000000000000000000000000000000000000