P1
# CREATOR: GIMP PNM Filter Version 1.1
156 11
1111111110000000111111111111111110000000000000000000011111111111111111
1100000000111111111111111111100000000001111111111111111100000000000000
1111111111111111111111111000000111111111111111111100000000000000000001
1111111111111111110000000011111111111111111110000000001111111111111111
1110000000000001111111111111111111111111110000011111111111111111110000
0000000000000011111111111111111111100000001111111111111111111000000000
1111111111111111111000000000000111111111111111111111111111000001111111
1111111111110000000000000000001111111111111111111110000001111111111111
1111111100000000111111111111111111100000000000011111111111111111111111
1111000011111111111111111111100000000000000000111111111111111111111000
0001111111111111111111110000000111111111111111111111000000000011111111
1111111111111111111110001111111111111111111110000000000000000001111111
1111111111110000000111111111111111111111000000011111111111111111111100
0000000011111111111111111111111111111000111111111111111111111000000000
0000000001111111111111111111000000001111111111111111111000000001111111
1111111111111100000000001111111111111111111111111111100001111111111111
1111110000000000000000000111111111111111111100000000111111111111111111
1000000000111111111111111111100000000000011111111111111111111111111100
0001111111111111111111000000000000000000001111111111111111100000000011
1111111111111111100000000011111111111111111110000000000001111111111111
1111111111111100000111111111111111111100000000000000000000111111111111
1111100000000001111111111111111100000000001111111111111111111000000000
0001111111111111111111111111110000001111111111111111100000000000000000
0000011111111111111100000000000111111111111111110000000000011111111111
111111000000000000001111111111111111